<svg width="15" height="12" viewBox="0 0 15 12" fill="none" xmlns="http://www.w3.org/2000/svg">
<path d="M13.8333 10.3333C13.8333 10.6428 13.7104 10.9395 13.4916 11.1583C13.2728 11.3771 12.9761 11.5 12.6667 11.5H2.16667C1.85725 11.5 1.5605 11.3771 1.34171 11.1583C1.12292 10.9395 1 10.6428 1 10.3333V3.91667C1 3.60725 1.12292 3.3105 1.34171 3.09171C1.5605 2.87292 1.85725 2.75 2.16667 2.75H4.5L5.66667 1H9.16667L10.3333 2.75H12.6667C12.9761 2.75 13.2728 2.87292 13.4916 3.09171C13.7104 3.3105 13.8333 3.60725 13.8333 3.91667V10.3333Z" stroke="#202020" stroke-linecap="round" stroke-linejoin="round"/>
<path d="M7.41667 9.16667C8.70533 9.16667 9.75 8.122 9.75 6.83333C9.75 5.54467 8.70533 4.5 7.41667 4.5C6.128 4.5 5.08333 5.54467 5.08333 6.83333C5.08333 8.122 6.128 9.16667 7.41667 9.16667Z" stroke="#202020" stroke-linecap="round" stroke-linejoin="round"/>
</svg>
