<svg width="13" height="7" viewBox="0 0 13 7" fill="none" xmlns="http://www.w3.org/2000/svg">
<path d="M6.0752 6.16683H3.74186C2.93492 6.16683 2.24707 5.88246 1.67832 5.3137C1.10957 4.74495 0.825195 4.05711 0.825195 3.25016C0.825195 2.44322 1.10957 1.75537 1.67832 1.18662C2.24707 0.617871 2.93492 0.333496 3.74186 0.333496H6.0752V1.50016H3.74186C3.25575 1.50016 2.84256 1.6703 2.50228 2.01058C2.162 2.35086 1.99186 2.76405 1.99186 3.25016C1.99186 3.73627 2.162 4.14947 2.50228 4.48975C2.84256 4.83002 3.25575 5.00016 3.74186 5.00016H6.0752V6.16683ZM4.3252 3.8335V2.66683H8.99186V3.8335H4.3252ZM7.24186 6.16683V5.00016H9.5752C10.0613 5.00016 10.4745 4.83002 10.8148 4.48975C11.1551 4.14947 11.3252 3.73627 11.3252 3.25016C11.3252 2.76405 11.1551 2.35086 10.8148 2.01058C10.4745 1.6703 10.0613 1.50016 9.5752 1.50016H7.24186V0.333496H9.5752C10.3821 0.333496 11.07 0.617871 11.6387 1.18662C12.2075 1.75537 12.4919 2.44322 12.4919 3.25016C12.4919 4.05711 12.2075 4.74495 11.6387 5.3137C11.07 5.88246 10.3821 6.16683 9.5752 6.16683H7.24186Z" fill="#202020"/>
</svg>
