<svg width="12" height="10" viewBox="0 0 12 10" fill="none" xmlns="http://www.w3.org/2000/svg">
<path d="M11.5674 4.79063C11.5674 5.12813 11.2661 5.3925 10.9246 5.3925H10.2817L10.2958 8.39438C10.2958 8.44688 10.2917 8.49563 10.2857 8.54625V8.85C10.2857 9.26438 9.92611 9.6 9.48214 9.6H9.16071C9.13861 9.6 9.11652 9.58313 9.09442 9.59813C9.06629 9.58313 9.03817 9.6 9.01004 9.6H7.875C7.43103 9.6 7.07143 9.26438 7.07143 8.85V7.2C7.07143 6.86813 6.78415 6.6 6.42857 6.6H5.14286C4.78728 6.6 4.5 6.86813 4.5 7.2V8.85C4.5 9.26438 4.1404 9.6 3.69643 9.6H2.57344C2.5433 9.6 2.51317 9.59813 2.48304 9.59625C2.45893 9.59813 2.43482 9.6 2.41071 9.6H2.08929C1.64551 9.6 1.28571 9.26438 1.28571 8.85V6.75C1.28571 6.73313 1.28632 6.71438 1.28752 6.6975V5.3925H0.643862C0.281652 5.3925 0 5.12813 0 4.79063C0 4.62188 0.0603482 4.47188 0.201094 4.34063L5.35179 0.1503C5.49241 0.0187875 5.65312 0 5.79375 0C5.93437 0 6.09509 0.037575 6.21763 0.131513L11.3464 4.34063C11.5071 4.47188 11.5895 4.62188 11.5674 4.79063Z" fill="#83C427"/>
</svg>
