<svg width="12" height="10" viewBox="0 0 12 10" fill="none" xmlns="http://www.w3.org/2000/svg">
<path d="M2.7 9.1998C1.20881 9.1998 0 7.99043 0 6.4998C0 5.3223 0.753187 4.32105 1.80375 3.95168C1.80131 3.90105 1.8 3.85043 1.8 3.7998C1.8 2.1423 3.1425 0.799805 4.8 0.799805C5.91188 0.799805 6.88125 1.40449 7.40063 2.30355C7.68563 2.09543 8.03063 1.9998 8.4 1.9998C9.39375 1.9998 10.2 2.78918 10.2 3.7998C10.2 4.02855 10.1569 4.24605 10.08 4.44855C11.175 4.6698 12 5.63918 12 6.7998C12 8.12543 10.9256 9.1998 9.6 9.1998H2.7ZM4.18125 5.13105C4.00688 5.3073 4.00688 5.5923 4.18125 5.75168C4.3575 5.94293 4.6425 5.94293 4.80188 5.75168L5.55 5.03543V7.5498C5.55 7.79918 5.75063 7.9998 6 7.9998C6.24938 7.9998 6.45 7.79918 6.45 7.5498V5.03543L7.18125 5.75168C7.3575 5.94293 7.6425 5.94293 7.80188 5.75168C7.99313 5.5923 7.99313 5.3073 7.80188 5.13105L6.30188 3.63105C6.1425 3.45668 5.8575 3.45668 5.68125 3.63105L4.18125 5.13105Z" fill="#83C427"/>
</svg>
