<svg width="10" height="10" viewBox="0 0 10 10" fill="none" xmlns="http://www.w3.org/2000/svg">
<path fill-rule="evenodd" clip-rule="evenodd" d="M5.93109 0.73125C5.69359 -0.24375 4.30609 -0.24375 4.06859 0.73125C4.03314 0.87776 3.96359 1.01383 3.86561 1.12838C3.76763 1.24294 3.64399 1.33274 3.50475 1.39048C3.3655 1.44822 3.2146 1.47228 3.0643 1.46068C2.91401 1.44909 2.76858 1.40217 2.63984 1.32375C1.78234 0.80125 0.801094 1.7825 1.32359 2.64C1.66109 3.19375 1.36172 3.91625 0.731719 4.06937C-0.243906 4.30625 -0.243906 5.69438 0.731719 5.93063C0.878268 5.96613 1.01436 6.03574 1.12891 6.13379C1.24347 6.23185 1.33324 6.35557 1.39093 6.49489C1.44862 6.6342 1.47259 6.78518 1.46089 6.93551C1.44919 7.08584 1.40214 7.23129 1.32359 7.36C0.801094 8.2175 1.78234 9.19875 2.63984 8.67625C2.76856 8.5977 2.914 8.55066 3.06433 8.53896C3.21467 8.52726 3.36564 8.55122 3.50496 8.60891C3.64427 8.6666 3.76799 8.75638 3.86605 8.87093C3.9641 8.98548 4.03372 9.12158 4.06922 9.26813C4.30609 10.2438 5.69422 10.2438 5.93047 9.26813C5.96609 9.12165 6.03577 8.98565 6.13385 8.87118C6.23192 8.7567 6.35562 8.66699 6.4949 8.60931C6.63417 8.55164 6.78509 8.52765 6.93538 8.53928C7.08567 8.55091 7.2311 8.59784 7.35984 8.67625C8.21734 9.19875 9.19859 8.2175 8.67609 7.36C8.59768 7.23126 8.55075 7.08583 8.53912 6.93554C8.52749 6.78524 8.55149 6.63433 8.60916 6.49505C8.66683 6.35578 8.75655 6.23208 8.87102 6.134C8.9855 6.03593 9.1215 5.96625 9.26797 5.93063C10.2436 5.69375 10.2436 4.30562 9.26797 4.06937C9.12142 4.03387 8.98533 3.96426 8.87077 3.86621C8.75622 3.76815 8.66644 3.64443 8.60876 3.50511C8.55107 3.3658 8.5271 3.21482 8.5388 3.06449C8.5505 2.91416 8.59754 2.76871 8.67609 2.64C9.19859 1.7825 8.21734 0.80125 7.35984 1.32375C7.23113 1.4023 7.08569 1.44934 6.93535 1.46104C6.78502 1.47274 6.63405 1.44878 6.49473 1.39109C6.35541 1.3334 6.23169 1.24362 6.13364 1.12907C6.03558 1.01452 5.96597 0.878424 5.93047 0.731875L5.93109 0.73125ZM4.99984 6.875C5.49712 6.875 5.97404 6.67746 6.32567 6.32583C6.6773 5.97419 6.87484 5.49728 6.87484 5C6.87484 4.50272 6.6773 4.02581 6.32567 3.67417C5.97404 3.32254 5.49712 3.125 4.99984 3.125C4.50256 3.125 4.02565 3.32254 3.67402 3.67417C3.32239 4.02581 3.12484 4.50272 3.12484 5C3.12484 5.49728 3.32239 5.97419 3.67402 6.32583C4.02565 6.67746 4.50256 6.875 4.99984 6.875V6.875Z" fill="#082854"/>
</svg>
