<svg width="11" height="9" viewBox="0 0 11 9" fill="none" xmlns="http://www.w3.org/2000/svg">
<path d="M7.07213 6.3C7.07213 6.46582 6.92837 6.6 6.7507 6.6H4.82213C4.64534 6.6 4.5007 6.465 4.5007 6.3V5.4H0.643555V8.1C0.643555 8.58 1.09376 9 1.60784 9H9.96498C10.4791 9 10.9293 8.57981 10.9293 8.1V5.4H7.07213V6.3ZM9.96498 1.8H8.35784V0.9C8.35784 0.420187 7.90784 0 7.39356 0H4.17927C3.66498 0 3.21498 0.420187 3.21498 0.9V1.8H1.60784C1.09376 1.8 0.643555 2.22 0.643555 2.7V4.8H10.9293V2.7C10.9293 2.22 10.4793 1.8 9.96498 1.8ZM7.39356 1.8H4.17927V0.9H7.39356V1.8Z" fill="#082854"/>
</svg>
