<svg width="12" height="10" viewBox="0 0 12 10" fill="none" xmlns="http://www.w3.org/2000/svg">
<path d="M6.10784 0.310875C6.10784 0.141656 6.23039 0 6.42927 0C8.91431 0 10.9293 1.88063 10.9293 4.2C10.9293 4.36875 10.7766 4.5 10.5958 4.5H6.10784V0.310875ZM0.643555 5.1C0.643555 2.82563 2.4536 0.943875 4.78396 0.642188C4.98686 0.618563 5.14356 0.75675 5.14356 0.930188V5.4L8.28753 8.33438C8.42213 8.46 8.41208 8.66625 8.2574 8.76938C7.4699 9.2925 6.50561 9.6 5.46498 9.6C2.80315 9.6 0.643555 7.58625 0.643555 5.1ZM11.2186 5.4C11.4034 5.4 11.552 5.54625 11.5279 5.71875C11.3732 6.76688 10.8308 7.69875 10.0433 8.38688C9.9228 8.47688 9.73396 8.48438 9.61744 8.37563L6.42927 5.4H11.2186Z" fill="#082854"/>
</svg>
