<svg width="14" height="10" viewBox="0 0 14 10" fill="none" xmlns="http://www.w3.org/2000/svg">
<path d="M6.78398 6C7.93731 6 8.85519 5.127 8.85519 4.05C8.85519 2.973 7.92023 2.1 6.78398 2.1C5.63066 2.1 4.71278 2.973 4.71278 4.05C4.6947 5.12625 5.63086 6 6.78398 6ZM7.78845 6.6H5.78354C4.20653 6.6 2.92885 7.71938 2.92885 9.09938C2.92885 9.37688 3.18398 9.6 3.49939 9.6H10.0726C10.388 9.6 10.6431 9.37688 10.6431 9.09938C10.6431 7.71938 9.36546 6.6 7.78845 6.6ZM10.6431 3C11.5307 3 12.2503 2.32838 12.2503 1.5C12.2503 0.671625 11.5311 0 10.6431 0C9.75559 0 9.03599 0.671625 9.03599 1.5C9.03599 2.32838 9.75519 3 10.6431 3ZM4.05184 4.05C4.05184 3.94783 4.07158 3.85069 4.08417 3.75169C3.86501 3.63938 3.62394 3.6 3.36881 3.6H2.12689C1.14974 3.6 0.357422 4.38375 0.357422 5.34937C0.357422 5.5425 0.515866 5.7 0.711395 5.7H4.71921C4.30898 5.25375 4.05184 4.68188 4.05184 4.05ZM2.92885 3C3.8164 3 4.53599 2.32838 4.53599 1.5C4.53599 0.671625 3.8168 0 2.92885 0C2.04131 0 1.32171 0.671625 1.32171 1.5C1.32171 2.32838 2.04131 3 2.92885 3ZM11.4447 3.6H10.2024C9.94524 3.6 9.70256 3.65694 9.48198 3.7545C9.49403 3.85313 9.51412 3.94875 9.51412 4.05C9.51412 4.68206 9.25738 5.25394 8.84796 5.7H12.8598C13.0559 5.7 13.2146 5.5425 13.2146 5.34937C13.2146 4.38375 12.423 3.6 11.4447 3.6Z" fill="#082854"/>
</svg>
